Coordinates
nRows=6
nColumns=38

# SIMM Motion File Header:
name Coordinates
datacolumns 38
datarows 6
otherdata 1
range 1.85320000000000000000 1.85820000000000010000

Units are S.I. units (second, meters, Newtons, ...)
Angles are in degrees.

endheader
time	pelvis_tilt	pelvis_list	pelvis_rotation	pelvis_tx	pelvis_ty	pelvis_tz	hip_flexion_r	hip_adduction_r	hip_rotation_r	knee_angle_r	ankle_angle_r	subtalar_angle_r	mtp_angle_r	hip_flexion_l	hip_adduction_l	hip_rotation_l	knee_angle_l	ankle_angle_l	subtalar_angle_l	mtp_angle_l	lumbar_extension	lumbar_bending	lumbar_rotation	arm_flex_r	arm_add_r	arm_rot_r	elbow_flex_r	pro_sup_r	wrist_flex_r	wrist_dev_r	arm_flex_l	arm_add_l	arm_rot_l	elbow_flex_l	pro_sup_l	wrist_flex_l	wrist_dev_l
      1.85320000000000000000	     -1.89098762402754830000	      3.13368938741576740000	      8.02031676916684510000	      0.74713577583678203000	      0.96066711767479296000	     -0.36878147407886502000	     34.79895220729065400000	     -8.03934619792166320000	     -4.45202246166546800000	   -118.76934314833690000000	     -2.39909734091335250000	     -0.00000000000000085614	      0.00000000000000313645	     -0.93654594286669102000	      5.87716325586806040000	      4.66431792331189500000	    -26.79176047977290100000	     16.23373782315525200000	     -0.00000000000003723793	     -0.00000000000000815261	    -14.31770369915873600000	     -4.32603850733950510000	    -11.20336147338486700000	    -30.97925221165961700000	    -23.88257126572238700000	     -0.85631371262945910000	    103.30253330783704000000	     70.06301256292809400000	      0.00000000000004875182	      0.00000000000001012350	      4.13577568435603120000	    -34.19216016718894500000	    -10.25093017246287500000	    122.30168889868150000000	     94.73472584736921900000	      0.00000000000003589483	      0.00000000000000359873
      1.85420000000000010000	     -1.90765564366122130000	      3.00530515847358880000	      8.04738485530939760000	      0.74739428922864004000	      0.96112884813238064000	     -0.36884920402354676000	     35.10603390109596900000	     -7.94897907753874210000	     -4.52657891230095810000	   -118.42520549552157000000	     -2.35139688875967900000	     -0.00000000000000092274	      0.00000000000000309693	     -1.36241026953130210000	      5.69383798011066040000	      4.78742749868681550000	    -26.39940948848592900000	     15.92649242896927800000	     -0.00000000000003701503	     -0.00000000000000818525	    -14.24322169048528200000	     -4.14799404153634210000	    -11.34931484208228600000	    -31.20443867706507000000	    -23.97041666885766300000	     -0.97450152955784652000	    103.48213794839297000000	     69.90384856018178500000	      0.00000000000004892120	      0.00000000000001012927	      4.13622668046415940000	    -34.05050365034517100000	    -10.15039700986001000000	    122.39884743818975000000	     94.59128075014216100000	      0.00000000000003599513	      0.00000000000000382401
      1.85520000000000000000	     -1.92385259357679340000	      2.87581997758432450000	      8.07351768356947020000	      0.74765980251281128000	      0.96159398945004571000	     -0.36891468403043187000	     35.40754878851591100000	     -7.85722915159797800000	     -4.60252684985911740000	   -118.07251856623618000000	     -2.30323193250227030000	     -0.00000000000000099161	      0.00000000000000305692	     -1.78856293100625810000	      5.50806072828129430000	      4.90823140549675860000	    -26.00444139572562800000	     15.60656462941260800000	     -0.00000000000003675877	     -0.00000000000000820888	    -14.16807414561484200000	     -3.96872957078599380000	    -11.49293535636442700000	    -31.43092377217232800000	    -24.05868990367104800000	     -1.09495793451728060000	    103.66146076246505000000	     69.75071731318109900000	      0.00000000000004909003	      0.00000000000001013467	      4.13373995207956300000	    -33.91159913442093200000	    -10.04397184682524900000	    122.49657600166265000000	     94.44228833059543100000	      0.00000000000003609464	      0.00000000000000406291
      1.85620000000000010000	     -1.93958817590413360000	      2.74533630387061090000	      8.09863596536278860000	      0.74793205297675625000	      0.96206232866476615000	     -0.36897778344434273000	     35.70353647335615900000	     -7.76415911168758570000	     -4.67970396315668680000	   -117.71139587098915000000	     -2.25462719436455880000	     -0.00000000000000106232	      0.00000000000000301582	     -2.21485220317853000000	      5.31996625294240120000	      5.02639749906566640000	    -25.60707330494359400000	     15.27391171531946600000	     -0.00000000000003652244	     -0.00000000000000824619	    -14.09230562915473700000	     -3.78837563639053170000	    -11.63410917163048800000	    -31.65865832946024800000	    -24.14727817547808500000	     -1.21773904445669250000	    103.84033421020285000000	     69.60370572258366900000	      0.00000000000004925827	      0.00000000000001014102	      4.12849197791344040000	    -33.77547412498366700000	     -9.93158998131323760000	    122.59473414215233000000	     94.28806722813834500000	      0.00000000000003619301	      0.00000000000000428892
      1.85720000000000000000	     -1.95486653109937380000	      2.61395446411856990000	      8.12266431565723760000	      0.74821077023681593000	      0.96253366431613185000	     -0.36903837704359888000	     35.99402927940695200000	     -7.66982769243203850000	     -4.75795216656196550000	   -117.34194584448825000000	     -2.20561133901134900000	     -0.00000000000000113324	      0.00000000000000297401	     -2.64112849168392930000	      5.12969046542708900000	      5.14159310003826860000	    -25.20753290858652200000	     14.92850650003816200000	     -0.00000000000003631927	     -0.00000000000000826182	    -14.01596937198870100000	     -3.60705840398222090000	    -11.77273122996635000000	    -31.88758642950313800000	    -24.23607250966784600000	     -1.34289262624894870000	    104.01860061413775000000	     69.46289122263826200000	      0.00000000000004942601	      0.00000000000001014753	      4.12064778718798670000	    -33.64215219867198700000	     -9.81320857590588070000	    122.69318784819173000000	     94.12893708961110000000	      0.00000000000003629037	      0.00000000000000451589
      1.85820000000000010000	     -1.96968828755106080000	      2.48177233713101100000	      8.14553116641020660000	      0.74849567645673976000	      0.96300780316533152000	     -0.36909634491993759000	     36.27905465474888300000	     -7.57428948634308790000	     -4.83711742408247320000	   -116.96427200418179000000	     -2.15621716501818340000	     -0.00000000000000120245	      0.00000000000000293289	     -3.06724207340989840000	      4.93737043934457010000	      5.25348548198151020000	    -24.80605886201678300000	     14.57033736027849700000	     -0.00000000000003609712	     -0.00000000000000827348	    -13.93912477128202800000	     -3.42489972414296020000	    -11.90870517703062600000	    -32.11764569844039800000	    -24.32496808022941100000	     -1.47045774485790330000	    104.19611182644317000000	     69.32834260536188300000	      0.00000000000004959493	      0.00000000000001015285	      4.11036035342452700000	    -33.51165285719150700000	     -9.68880668673914870000	    122.79180982037229000000	     93.96521856324993400000	      0.00000000000003638905	      0.00000000000000475986
